<svg width="240" height="240" viewBox="0 0 240 240" fill="none" xmlns="http://www.w3.org/2000/svg">
    <g clip-path="url(#clip0_552_759)">
        <path d="M119.988 29.9883C70.2783 29.9883 29.9883 70.2783 29.9883 119.988C29.9883 169.698 70.2783 209.988 119.988 209.988C169.698 209.988 209.988 169.698 209.988 119.988C209.928 70.3083 169.668 30.0483 119.988 29.9883ZM119.988 19.9883C175.218 19.9883 219.988 64.7583 219.988 119.988C219.988 175.218 175.218 219.988 119.988 219.988C64.7583 219.988 19.9883 175.218 19.9883 119.988C19.9883 64.7583 64.7583 19.9883 119.988 19.9883Z" fill="url(#paint0_linear_552_759)"/>
        <path d="M187.79 132.908L190.15 131.578L190.94 133.408C190.39 133.838 189.77 134.178 189.11 134.408C188.63 134.618 188.11 134.718 187.59 134.708C187.09 134.748 186.59 134.548 186.26 134.168C185.948 133.748 185.796 133.23 185.83 132.708V126.298C185.34 126.518 184.83 126.678 184.31 126.788C183.81 126.908 183.3 126.968 182.79 126.968C182.02 126.968 181.26 126.828 180.55 126.538C179.842 126.23 179.215 125.761 178.72 125.168H178.66C178.347 126.527 177.654 127.769 176.66 128.748C175.693 129.601 174.428 130.036 173.14 129.958C172.46 129.958 171.78 129.848 171.14 129.598C170.54 129.358 169.98 129.028 169.5 128.598C168.97 128.118 168.51 127.568 168.13 126.958C167.7 126.288 167.34 125.588 166.92 124.778H166.86C166.23 124.778 165.59 124.708 164.98 124.538L165.28 122.898C165.76 122.968 166.25 123.008 166.74 123.018C167.34 123.038 167.93 122.958 168.5 122.778C169 122.598 169.46 122.328 169.87 121.988C170.26 121.608 170.57 121.158 170.79 120.658C170.99 120.048 171.09 119.418 171.09 118.778C171.09 118.158 170.99 117.538 170.79 116.948C170.617 116.459 170.336 116.016 169.97 115.649C169.603 115.282 169.159 115.002 168.67 114.828C168.12 114.628 167.55 114.528 166.97 114.528C166.74 114.518 166.52 114.528 166.3 114.588C166.05 114.588 165.81 114.638 165.57 114.708L165.21 113.008C165.85 112.868 166.5 112.788 167.15 112.768C168 112.768 168.85 112.928 169.64 113.258C170.33 113.578 170.95 114.028 171.47 114.588C171.96 115.158 172.33 115.818 172.56 116.528C172.8 117.248 172.92 118.008 172.92 118.768C172.92 119.448 172.82 120.118 172.62 120.768C172.44 121.358 172.15 121.918 171.77 122.408C171.42 122.898 170.96 123.318 170.44 123.618C169.91 123.958 169.34 124.218 168.74 124.408C169.17 125.445 169.81 126.382 170.62 127.158C171.26 127.758 172.1 128.088 172.98 128.078C173.51 128.078 174.03 127.958 174.5 127.718C175.03 127.438 175.48 127.048 175.83 126.568C176.24 125.938 176.55 125.238 176.75 124.508C177.01 123.478 177.13 122.408 177.11 121.348V118.348H178.99V120.638C178.99 121.378 179.08 122.108 179.29 122.818C179.47 123.318 179.76 123.768 180.14 124.148C180.47 124.448 180.86 124.678 181.29 124.818C181.7 124.938 182.13 124.998 182.56 124.998C183.7 124.958 184.8 124.578 185.72 123.908V113.018H187.6V132.908H187.79ZM178.45 104.708C179.2 104.698 179.95 104.758 180.69 104.888C181.28 104.988 181.85 105.168 182.39 105.428C182.86 105.688 183.29 106.028 183.66 106.428C184.04 106.848 184.37 107.308 184.66 107.798L187.75 113.138L186.05 113.808L183.81 109.378C183.54 108.888 183.21 108.438 182.81 108.048C182.48 107.698 182.09 107.408 181.66 107.198C181.2 106.978 180.71 106.838 180.2 106.768C179.62 106.698 179.03 106.658 178.44 106.648H175V104.708H178.45Z" fill="url(#paint1_linear_552_759)"/>
        <path d="M187.468 136C186.638 136 185.858 135.63 185.318 135L185.258 134.92C184.778 134.27 184.538 133.48 184.588 132.68V128.01C184.018 128.14 183.428 128.21 182.838 128.22H182.738C181.838 128.22 180.938 128.04 180.108 127.7C179.818 127.57 179.538 127.43 179.268 127.26C178.838 128.15 178.268 128.95 177.568 129.64C176.363 130.701 174.792 131.25 173.188 131.17C172.368 131.17 171.558 131.02 170.798 130.72C170.068 130.44 169.388 130.04 168.798 129.53C168.169 128.968 167.623 128.318 167.178 127.6C166.848 127.09 166.558 126.55 166.258 125.98C165.748 125.94 165.238 125.85 164.748 125.71L163.648 125.4L164.378 121.46L165.558 121.62C165.998 121.68 166.448 121.72 166.888 121.73H167.038C167.438 121.73 167.848 121.66 168.228 121.54C168.558 121.42 168.868 121.24 169.138 121.02C169.378 120.77 169.578 120.48 169.728 120.16C170.027 119.229 170.02 118.227 169.708 117.3C169.598 116.99 169.418 116.7 169.178 116.47C168.948 116.24 168.668 116.07 168.358 115.96C167.945 115.81 167.509 115.732 167.068 115.73H166.958C166.865 115.72 166.771 115.72 166.678 115.73H166.448C166.298 115.73 166.158 115.76 166.018 115.8L164.728 116.18L163.828 111.94L165.048 111.68C165.758 111.53 166.478 111.44 167.208 111.41H167.328C168.328 111.41 169.308 111.61 170.228 111.99C171.088 112.38 171.858 112.94 172.498 113.63C173.108 114.33 173.578 115.15 173.858 116.04C174.138 116.89 174.278 117.77 174.278 118.66C174.278 119.46 174.158 120.26 173.918 121.03C173.698 121.75 173.368 122.43 172.918 123.03C172.468 123.66 171.888 124.18 171.218 124.57C171.028 124.69 170.838 124.8 170.638 124.91C170.928 125.35 171.258 125.76 171.638 126.13C172.028 126.5 172.548 126.7 173.088 126.7H173.148C173.468 126.7 173.788 126.63 174.078 126.48C174.418 126.3 174.718 126.04 174.948 125.73C175.278 125.21 175.528 124.64 175.688 124.05C175.918 123.13 176.028 122.19 176.008 121.24V116.94H180.388V120.48C180.388 121.09 180.458 121.69 180.628 122.28C180.748 122.59 180.918 122.87 181.148 123.1C181.348 123.28 181.578 123.41 181.828 123.49C182.118 123.57 182.418 123.61 182.718 123.61C183.384 123.583 184.035 123.402 184.618 123.08V113.21L182.868 109.76C182.668 109.39 182.408 109.06 182.118 108.76C181.898 108.51 181.628 108.31 181.328 108.17C180.978 108.01 180.618 107.9 180.238 107.85C179.708 107.78 179.168 107.75 178.638 107.74H173.958V103.32H178.748C179.518 103.32 180.298 103.39 181.058 103.52C181.748 103.64 182.428 103.86 183.058 104.17C183.668 104.49 184.218 104.9 184.688 105.4C185.138 105.89 185.548 106.42 185.888 106.99L188.448 111.41L188.978 111.2V112.34L189.708 113.6L188.968 113.89V130.72L190.858 129.65L192.568 133.65L191.838 134.25C191.188 134.77 190.458 135.19 189.678 135.47C189.078 135.73 188.428 135.86 187.778 135.86H187.578L187.468 136Z" fill="url(#paint2_linear_552_759)"/>
        <path d="M104.191 162.52H135.921V166.72H132.331V187.72H129.021L128.711 186.93C128.461 186.3 128.161 185.68 127.821 185.09C127.501 184.52 127.141 183.97 126.751 183.45C126.361 182.94 125.941 182.46 125.491 182C125.271 181.78 125.041 181.57 124.811 181.36C124.181 181.9 123.471 182.35 122.711 182.69C121.461 183.2 120.131 183.47 118.781 183.47H118.671C117.091 183.47 115.531 183.13 114.091 182.47C112.541 181.74 111.161 180.7 110.041 179.41C108.755 177.957 107.69 176.323 106.881 174.56C105.911 172.46 105.171 170.26 104.671 168L104.481 167.12L104.831 166.91H104.221L104.191 162.52ZM127.781 166.73H123.551C124.221 167.11 124.821 167.59 125.341 168.15C126.074 168.956 126.651 169.892 127.041 170.91C127.471 172.03 127.681 173.21 127.671 174.41C127.671 175.12 127.601 175.82 127.461 176.52C127.391 176.93 127.281 177.32 127.141 177.71L127.781 178.33V166.73ZM113.201 166.88H108.891C109.371 168.75 110.041 170.57 110.891 172.31C111.551 173.72 112.391 175.04 113.391 176.24C114.121 177.08 115.021 177.76 116.021 178.24C116.881 178.63 117.811 178.83 118.751 178.84H118.871C119.481 178.84 120.081 178.73 120.651 178.5C121.181 178.29 121.651 177.98 122.051 177.57C122.441 177.19 122.731 176.72 122.911 176.21C123.141 175.62 123.261 174.99 123.271 174.35C123.281 173.78 123.191 173.21 122.991 172.68C122.831 172.2 122.571 171.75 122.241 171.36C122.131 171.23 122.011 171.12 121.881 171.01V171.26C121.881 171.77 121.801 172.27 121.621 172.74C121.441 173.22 121.161 173.65 120.801 174.02L120.751 174.07C120.421 174.37 120.051 174.63 119.661 174.85H119.561C119.071 175.07 118.541 175.19 118.001 175.2H117.881C117.331 175.2 116.791 175.08 116.291 174.84C115.781 174.61 115.331 174.27 114.971 173.84C114.601 173.45 114.311 172.99 114.121 172.49C113.881 171.95 113.771 171.36 113.791 170.77C113.791 170.05 113.961 169.33 114.281 168.68C114.391 168.43 114.531 168.2 114.691 167.98L114.271 167.59C113.931 167.33 113.581 167.09 113.211 166.87L113.201 166.88ZM119.021 172.3C119.131 172.18 119.211 172.04 119.271 171.89C119.341 171.71 119.371 171.52 119.371 171.33C119.371 171.12 119.331 170.91 119.261 170.71C119.161 170.42 119.031 170.15 118.861 169.9L118.451 169.29L118.981 168.23L117.981 168.47L117.091 169.15C116.841 169.35 116.631 169.6 116.501 169.89C116.341 170.2 116.261 170.54 116.251 170.89C116.241 171.13 116.281 171.37 116.381 171.59V171.69C116.451 171.88 116.561 172.06 116.701 172.2L116.751 172.26C116.881 172.41 117.031 172.52 117.211 172.6H117.261C117.431 172.68 117.611 172.72 117.791 172.72H117.841C118.041 172.72 118.231 172.67 118.411 172.6C118.621 172.52 118.831 172.42 119.021 172.29V172.3Z" fill="url(#paint3_linear_552_759)"/>
        <path d="M118.281 116.27C118.296 115.757 118.209 115.247 118.027 114.769C117.844 114.29 117.569 113.852 117.217 113.479C116.865 113.107 116.443 112.807 115.975 112.598C115.508 112.389 115.003 112.274 114.491 112.26H114.091C113.568 112.21 113.041 112.264 112.539 112.419C112.037 112.574 111.571 112.826 111.166 113.161C110.762 113.497 110.428 113.909 110.184 114.373C109.939 114.838 109.789 115.347 109.741 115.87C109.741 115.96 109.731 116.05 109.721 116.14H107.891C107.891 113.06 110.401 110.58 113.481 110.59C113.681 110.59 113.881 110.6 114.071 110.62C117.031 110.29 119.711 112.42 120.041 115.39C120.061 115.58 120.071 115.77 120.071 115.96C120.116 117.077 119.754 118.173 119.051 119.044C118.348 119.914 117.353 120.499 116.251 120.69V120.75C116.801 120.83 117.331 121 117.831 121.24H125.111V110.93H131.301V112.57H127.001V133.37H125.121V122.94H119.621C121.341 125.62 120.561 129.18 117.891 130.9C116.853 131.563 115.63 131.878 114.401 131.8C113.556 131.883 112.703 131.788 111.896 131.522C111.09 131.256 110.348 130.824 109.718 130.254C109.088 129.685 108.584 128.99 108.238 128.214C107.893 127.438 107.713 126.599 107.711 125.75H109.591C109.574 126.908 110.017 128.027 110.823 128.859C111.629 129.691 112.732 130.17 113.891 130.19H114.261C116.531 130.36 118.511 128.67 118.681 126.4C118.691 126.23 118.701 126.06 118.681 125.89C118.681 124.81 118.271 123.77 117.531 122.98V122.92C117.068 122.489 116.523 122.154 115.929 121.936C115.335 121.718 114.703 121.621 114.071 121.65H112.921V120.01H114.071C116.171 120.24 118.071 118.73 118.301 116.62C118.311 116.51 118.321 116.4 118.321 116.3L118.271 116.27H118.281Z" fill="url(#paint4_linear_552_759)"/>
        <path d="M113.46 109.351H114.07C117.73 109.051 120.94 111.771 121.25 115.431C121.26 115.601 121.27 115.771 121.27 115.931C121.32 117.401 120.81 118.831 119.84 119.931H123.84V109.671H132.53V113.811H128.23V134.611H123.85V124.181H121.52C122.015 125.971 121.779 127.884 120.864 129.501C119.949 131.117 118.43 132.304 116.64 132.801C115.91 133.001 115.16 133.081 114.41 133.041C110.37 133.401 106.8 130.411 106.44 126.371C106.42 126.161 106.41 125.951 106.41 125.741V124.491H110.82V125.761C110.808 126.588 111.124 127.386 111.7 127.981C112.275 128.575 113.063 128.917 113.89 128.931H114.33C115.91 129.051 117.29 127.871 117.41 126.291C117.41 126.171 117.42 126.051 117.41 125.931V125.871C117.41 125.111 117.12 124.381 116.6 123.821L116.37 123.581C115.72 123.091 114.92 122.841 114.11 122.881H111.65V118.741H114.19C115.61 118.901 116.88 117.871 117.04 116.461C117.04 116.391 117.05 116.321 117.05 116.241C117.069 115.539 116.809 114.857 116.328 114.346C115.846 113.834 115.182 113.534 114.48 113.511H113.99C112.5 113.351 111.17 114.431 111.01 115.911C111.01 115.991 111 116.081 110.99 116.171V117.401H106.65V116.151C106.66 112.391 109.71 109.351 113.47 109.351H113.45H113.46Z" fill="url(#paint5_linear_552_759)"/>
        <path d="M121.24 74.5294H111.6L109.72 79.5294H107.48L115.26 58.6094H117.69L125.39 79.5294H123.15L121.24 74.5294ZM116.48 61.3094L112.29 72.7594H120.66L116.48 61.3094Z" fill="url(#paint6_linear_552_759)"/>
        <path d="M127.181 80.8106H122.281L120.381 75.8106H112.481L110.601 80.8106H105.691L114.411 57.3906H118.581L127.181 80.8106ZM114.061 71.5006H118.861L116.461 64.9406L114.061 71.5006Z" fill="url(#paint7_linear_552_759)"/>
        <path d="M68.481 119.57C68.421 119.96 68.321 120.35 68.181 120.72C72.341 120.96 75.581 124.44 75.511 128.61C75.511 133.46 71.391 136.4 63.811 137.22C63.591 136.58 63.311 135.97 62.961 135.39C69.271 134.79 73.271 132.6 73.271 128.66V128.42C73.2403 126.902 72.6236 125.455 71.55 124.381C70.4763 123.308 69.029 122.691 67.511 122.66C66.225 126.071 64.1481 129.128 61.451 131.58C61.641 132.16 61.901 132.71 62.241 133.22L60.411 134.37C60.085 133.907 59.8383 133.394 59.681 132.85C58.0631 134.223 56.0397 135.027 53.921 135.14C53.4015 135.149 52.8861 135.046 52.4092 134.84C51.9322 134.634 51.5045 134.329 51.1546 133.945C50.8046 133.561 50.5404 133.107 50.3794 132.613C50.2184 132.119 50.1644 131.597 50.221 131.08C50.711 126.67 53.831 123 58.111 121.8C58.051 120.22 58.051 118.47 58.051 116.71C52.891 116.71 52.351 116.71 51.381 116.65L51.321 114.65C52.901 114.71 55.511 114.71 58.111 114.71C58.111 113.34 58.171 111.62 58.231 110.16L61.231 110.4C61.1761 110.569 61.071 110.717 60.9299 110.824C60.7887 110.931 60.6181 110.993 60.441 111C60.381 112.09 60.321 113.55 60.201 114.64C64.291 114.56 68.371 114.14 72.391 113.37L72.631 115.43C68.491 116.17 64.291 116.58 60.081 116.64C60.021 118.22 59.961 119.73 60.021 121.19C61.491 120.73 63.031 120.49 64.571 120.46H65.791C65.921 120.01 66.021 119.55 66.091 119.09L68.481 119.57ZM59.201 130.91C58.661 128.58 58.351 126.21 58.281 123.82C56.7476 124.298 55.3813 125.201 54.3405 126.424C53.2997 127.647 52.6272 129.14 52.401 130.73C52.401 132.56 53.401 133.16 54.521 133.02C56.261 132.82 57.901 132.08 59.201 130.9V130.91ZM65.391 122.36C63.641 122.29 61.891 122.53 60.231 123.09C60.261 125.19 60.491 127.28 60.901 129.34C62.901 127.37 64.431 124.98 65.391 122.34V122.36Z" fill="url(#paint8_linear_552_759)"/>
        <path d="M57.0084 108.809L62.8984 109.279L62.4284 110.779C62.2884 111.209 62.0184 111.579 61.6584 111.849C61.6584 112.339 61.6084 112.849 61.5684 113.359C65.1238 113.221 68.6637 112.817 72.1584 112.149L73.4784 111.899L74.0184 116.459L72.8584 116.669C70.3484 117.119 67.8084 117.449 65.2584 117.669L69.8984 118.599L69.7184 119.699C73.8784 120.649 76.7984 124.379 76.7184 128.639C76.7184 132.479 74.4984 137.319 63.8984 138.479L62.8984 138.589L62.5784 137.639C62.3884 137.089 62.1384 136.549 61.8384 136.049L61.3484 135.229L60.0184 136.069L59.3384 135.069L59.1184 134.739C57.5522 135.708 55.7676 136.268 53.9284 136.369H53.8084C51.0984 136.369 48.8984 134.169 48.8984 131.459C48.8984 131.279 48.8984 131.099 48.9284 130.919C49.4384 126.369 52.4784 122.499 56.7784 120.919V117.979C52.7784 117.979 52.1984 117.979 51.2784 117.919L50.1384 117.849L50.0084 113.369L51.3484 113.419C52.6484 113.419 54.7184 113.479 56.8584 113.479C56.8584 112.299 56.9284 111.059 56.9684 110.129L57.0084 108.809ZM64.8084 119.219C64.8084 119.109 64.8284 119.009 64.8584 118.899L65.0484 117.669C63.7984 117.769 62.5384 117.839 61.2884 117.869V119.589C62.3784 119.359 63.4784 119.239 64.5884 119.219H64.8084ZM63.1284 134.119C66.5784 133.749 72.0084 132.559 72.0084 128.659V128.419C71.9858 127.371 71.607 126.362 70.9344 125.559C70.2619 124.756 69.3357 124.205 68.3084 123.999C67.0484 126.959 65.2084 129.649 62.9084 131.899C63.0184 132.119 63.1384 132.329 63.2684 132.529L63.9684 133.589L63.1284 134.119ZM57.8084 130.429C57.4768 128.865 57.2497 127.282 57.1284 125.689C56.2061 126.234 55.4159 126.977 54.8143 127.864C54.2126 128.751 53.8145 129.76 53.6484 130.819C53.6484 131.819 54.0084 131.819 54.2084 131.819H54.3684C55.6184 131.669 56.8084 131.189 57.8184 130.429H57.8084Z" fill="url(#paint9_linear_552_759)"/>
    </g>
    <defs>
        <linearGradient id="paint0_linear_552_759" x1="119.998" y1="19.5983" x2="119.998" y2="219.598" gradientUnits="userSpaceOnUse">
            <stop stop-color="#70C172"/>
            <stop offset="0.34" stop-color="#58BF8F"/>
            <stop offset="0.76" stop-color="#44BDA0"/>
            <stop offset="1" stop-color="#2DB8AF"/>
        </linearGradient>
        <linearGradient id="paint1_linear_552_759" x1="177.778" y1="105.208" x2="177.778" y2="135.208" gradientUnits="userSpaceOnUse">
            <stop stop-color="#70C172"/>
            <stop offset="0.34" stop-color="#58BF8F"/>
            <stop offset="0.76" stop-color="#44BDA0"/>
            <stop offset="1" stop-color="#2DB8AF"/>
        </linearGradient>
        <linearGradient id="paint2_linear_552_759" x1="178.231" y1="101.781" x2="178.231" y2="134.481" gradientUnits="userSpaceOnUse">
            <stop stop-color="#70C172"/>
            <stop offset="0.34" stop-color="#58BF8F"/>
            <stop offset="0.76" stop-color="#44BDA0"/>
            <stop offset="1" stop-color="#2DB8AF"/>
        </linearGradient>
        <linearGradient id="paint3_linear_552_759" x1="120.317" y1="162.532" x2="120.317" y2="187.732" gradientUnits="userSpaceOnUse">
            <stop stop-color="#70C172"/>
            <stop offset="0.34" stop-color="#58BF8F"/>
            <stop offset="0.76" stop-color="#44BDA0"/>
            <stop offset="1" stop-color="#2DB8AF"/>
        </linearGradient>
        <linearGradient id="paint4_linear_552_759" x1="119.465" y1="109.198" x2="119.465" y2="131.998" gradientUnits="userSpaceOnUse">
            <stop stop-color="#70C172"/>
            <stop offset="0.34" stop-color="#58BF8F"/>
            <stop offset="0.76" stop-color="#44BDA0"/>
            <stop offset="1" stop-color="#2DB8AF"/>
        </linearGradient>
        <linearGradient id="paint5_linear_552_759" x1="119.597" y1="107.951" x2="119.597" y2="133.251" gradientUnits="userSpaceOnUse">
            <stop stop-color="#70C172"/>
            <stop offset="0.34" stop-color="#58BF8F"/>
            <stop offset="0.76" stop-color="#44BDA0"/>
            <stop offset="1" stop-color="#2DB8AF"/>
        </linearGradient>
        <linearGradient id="paint6_linear_552_759" x1="116.454" y1="60.4118" x2="116.454" y2="81.3118" gradientUnits="userSpaceOnUse">
            <stop stop-color="#70C172"/>
            <stop offset="0.34" stop-color="#58BF8F"/>
            <stop offset="0.76" stop-color="#44BDA0"/>
            <stop offset="1" stop-color="#2DB8AF"/>
        </linearGradient>
        <linearGradient id="paint7_linear_552_759" x1="116.388" y1="59.1096" x2="116.388" y2="82.5096" gradientUnits="userSpaceOnUse">
            <stop stop-color="#70C172"/>
            <stop offset="0.34" stop-color="#58BF8F"/>
            <stop offset="0.76" stop-color="#44BDA0"/>
            <stop offset="1" stop-color="#2DB8AF"/>
        </linearGradient>
        <linearGradient id="paint8_linear_552_759" x1="62.9738" y1="106.865" x2="62.9738" y2="133.965" gradientUnits="userSpaceOnUse">
            <stop stop-color="#70C172"/>
            <stop offset="0.34" stop-color="#58BF8F"/>
            <stop offset="0.76" stop-color="#44BDA0"/>
            <stop offset="1" stop-color="#2DB8AF"/>
        </linearGradient>
        <linearGradient id="paint9_linear_552_759" x1="63.0138" y1="107.228" x2="63.0138" y2="137.028" gradientUnits="userSpaceOnUse">
            <stop stop-color="#70C172"/>
            <stop offset="0.34" stop-color="#58BF8F"/>
            <stop offset="0.76" stop-color="#44BDA0"/>
            <stop offset="1" stop-color="#2DB8AF"/>
        </linearGradient>
        <clipPath id="clip0_552_759">
            <rect width="240" height="240" fill="white"/>
        </clipPath>
    </defs>
</svg>
